<svg width="30" height="24" viewBox="0 0 30 24" fill="none" xmlns="http://www.w3.org/2000/svg">
<g clip-path="url(#clip0_6283_580)">
<path d="M5.43739 23.9473V22.3545C5.43739 21.7453 5.0771 21.3463 4.45861 21.3463C4.14936 21.3463 3.81309 21.4514 3.58191 21.7978C3.40176 21.5071 3.14356 21.3463 2.75625 21.3463C2.49804 21.3463 2.23984 21.4267 2.03567 21.7174V21.3989H1.49524V23.9473H2.03567V22.5401C2.03567 22.0886 2.26686 21.8752 2.62714 21.8752C2.98743 21.8752 3.16758 22.1133 3.16758 22.5401V23.9473H3.70801V22.5401C3.70801 22.0886 3.96622 21.8752 4.29948 21.8752C4.65977 21.8752 4.83991 22.1133 4.83991 22.5401V23.9473H5.43739ZM13.4538 21.3989H12.5771V20.6288H12.0367V21.3989H11.5473V21.903H12.0367V23.0721C12.0367 23.6566 12.2679 23.9999 12.8864 23.9999C13.1175 23.9999 13.3757 23.9195 13.5559 23.8143L13.3998 23.335C13.2436 23.4401 13.0635 23.4679 12.9344 23.4679C12.6762 23.4679 12.5741 23.3071 12.5741 23.0442V21.903H13.4508V21.3989H13.4538ZM18.0415 21.3432C17.7322 21.3432 17.5251 21.504 17.396 21.7143V21.3958H16.8555V23.9442H17.396V22.5092C17.396 22.0855 17.5761 21.8442 17.9124 21.8442C18.0145 21.8442 18.1436 21.8721 18.2486 21.8968L18.4048 21.3649C18.2967 21.3432 18.1436 21.3432 18.0415 21.3432ZM11.1089 21.6092C10.8507 21.4236 10.4904 21.3432 10.1031 21.3432C9.48463 21.3432 9.0733 21.6618 9.0733 22.1659C9.0733 22.5896 9.38255 22.8308 9.92298 22.9082L10.1812 22.936C10.4634 22.9886 10.6195 23.069 10.6195 23.202C10.6195 23.3875 10.4124 23.5205 10.0521 23.5205C9.6918 23.5205 9.40657 23.3875 9.22642 23.2545L8.96822 23.6783C9.25044 23.8917 9.63775 23.9968 10.0251 23.9968C10.7456 23.9968 11.16 23.6504 11.16 23.1741C11.16 22.7226 10.8237 22.4844 10.3103 22.404L10.0521 22.3762C9.8209 22.3484 9.64076 22.2958 9.64076 22.138C9.64076 21.9525 9.8209 21.8473 10.1061 21.8473C10.4154 21.8473 10.7246 21.9803 10.8807 22.0607L11.1089 21.6092ZM25.4874 21.3432C25.1782 21.3432 24.971 21.504 24.8419 21.7143V21.3958H24.3015V23.9442H24.8419V22.5092C24.8419 22.0855 25.0221 21.8442 25.3583 21.8442C25.4604 21.8442 25.5895 21.8721 25.6946 21.8968L25.8507 21.371C25.7456 21.3432 25.5925 21.3432 25.4874 21.3432ZM18.5819 22.6731C18.5819 23.4432 19.0983 23.9999 19.897 23.9999C20.2572 23.9999 20.5155 23.9195 20.7737 23.7092L20.5155 23.2576C20.3083 23.4185 20.1041 23.4958 19.8699 23.4958C19.4316 23.4958 19.1223 23.1772 19.1223 22.6731C19.1223 22.169 19.4316 21.8752 19.8699 21.8504C20.1011 21.8504 20.3083 21.9308 20.5155 22.0886L20.7737 21.637C20.5155 21.4236 20.2572 21.3463 19.897 21.3463C19.0983 21.3432 18.5819 21.903 18.5819 22.6731ZM23.5809 22.6731V21.3989H23.0405V21.7174C22.8603 21.4793 22.6021 21.3463 22.2659 21.3463C21.5693 21.3463 21.0289 21.903 21.0289 22.6731C21.0289 23.4432 21.5693 23.9999 22.2659 23.9999C22.6261 23.9999 22.8844 23.8669 23.0405 23.6288V23.9473H23.5809V22.6731ZM21.5963 22.6731C21.5963 22.2216 21.8785 21.8504 22.3439 21.8504C22.7823 21.8504 23.0915 22.1968 23.0915 22.6731C23.0915 23.1246 22.7823 23.4958 22.3439 23.4958C21.8815 23.4679 21.5963 23.1216 21.5963 22.6731ZM15.1291 21.3432C14.4086 21.3432 13.8922 21.8752 13.8922 22.67C13.8922 23.4649 14.4086 23.9968 15.1562 23.9968C15.5165 23.9968 15.8767 23.8917 16.162 23.6504L15.9038 23.2514C15.6966 23.4123 15.4384 23.5174 15.1832 23.5174C14.8469 23.5174 14.5137 23.3566 14.4356 22.9082H16.2641V22.6947C16.2881 21.8752 15.8227 21.3432 15.1291 21.3432ZM15.1291 21.8226C15.4654 21.8226 15.6966 22.036 15.7476 22.4319H14.4596C14.5107 22.0886 14.7418 21.8226 15.1291 21.8226ZM28.5559 22.6731V20.3906H28.0155V21.7174C27.8353 21.4793 27.5771 21.3463 27.2408 21.3463C26.5443 21.3463 26.0038 21.903 26.0038 22.6731C26.0038 23.4432 26.5443 23.9999 27.2408 23.9999C27.6011 23.9999 27.8593 23.8669 28.0155 23.6288V23.9473H28.5559V22.6731ZM26.5713 22.6731C26.5713 22.2216 26.8535 21.8504 27.3189 21.8504C27.7572 21.8504 28.0665 22.1968 28.0665 22.6731C28.0665 23.1246 27.7572 23.4958 27.3189 23.4958C26.8535 23.4679 26.5713 23.1216 26.5713 22.6731ZM8.47883 22.6731V21.3989H7.93839V21.7174C7.75825 21.4793 7.50004 21.3463 7.16377 21.3463C6.46722 21.3463 5.92678 21.903 5.92678 22.6731C5.92678 23.4432 6.46722 23.9999 7.16377 23.9999C7.52406 23.9999 7.78227 23.8669 7.93839 23.6288V23.9473H8.47883V22.6731ZM6.47022 22.6731C6.47022 22.2216 6.75244 21.8504 7.21782 21.8504C7.65617 21.8504 7.96541 22.1968 7.96541 22.6731C7.96541 23.1246 7.65617 23.4958 7.21782 23.4958C6.75244 23.4679 6.47022 23.1216 6.47022 22.6731Z" fill="white"/>
<path d="M19.0472 2.04688H10.9287V17.0716H19.0472V2.04688Z" fill="#EAE3DE"/>
<path d="M11.4692 9.5567C11.4692 6.50412 12.8623 3.79485 15 2.04433C13.4267 0.770103 11.4422 0 9.27742 0C4.14932 0 0 4.27423 0 9.5567C0 14.8392 4.14932 19.1134 9.27742 19.1134C11.4422 19.1134 13.4267 18.3433 15 17.0691C12.8593 15.3433 11.4692 12.6093 11.4692 9.5567Z" fill="white"/>
<path d="M30 9.5567C30 14.8392 25.8507 19.1134 20.7226 19.1134C18.5578 19.1134 16.5733 18.3433 15 17.0691C17.1647 15.3155 18.5308 12.6093 18.5308 9.5567C18.5308 6.50412 17.1377 3.79485 15 2.04433C16.5703 0.770103 18.5548 0 20.7196 0C25.8507 0 30 4.30206 30 9.5567Z" fill="white"/>
</g>
<defs>
<clipPath id="clip0_6283_580">
<rect width="30" height="24" fill="white"/>
</clipPath>
</defs>
</svg>
