<svg width="31" height="24" viewBox="0 0 31 24" fill="none" xmlns="http://www.w3.org/2000/svg">
<g clip-path="url(#clip0_6283_586)">
<path d="M30.7054 15.4644V15.0938H30.6124L30.5039 15.3409L30.3954 15.0938H30.3024V15.4644H30.3644V15.1864L30.4729 15.4335H30.5504L30.6589 15.1864V15.4644H30.7054ZM30.0854 15.4644V15.1555H30.2094V15.0938H29.8994V15.1555H30.0234V15.4644H30.0854Z" fill="white"/>
<path d="M19.6843 17.0506H11.2988V2.03906H19.6843V17.0506Z" fill="#EAE3DE"/>
<path d="M11.842 9.5444C11.842 6.50193 13.268 3.78378 15.5 2.03861C13.8725 0.756757 11.811 0 9.579 0C4.2935 0 0 4.27799 0 9.5444C0 14.8108 4.2935 19.0888 9.579 19.0888C11.811 19.0888 13.8725 18.332 15.5 17.0502C13.268 15.305 11.842 12.5869 11.842 9.5444Z" fill="white"/>
<path d="M31 9.5444C31 14.8108 26.7065 19.0888 21.421 19.0888C19.189 19.0888 17.1275 18.332 15.5 17.0502C17.732 15.305 19.158 12.5869 19.158 9.5444C19.158 6.50193 17.732 3.78378 15.5 2.03861C17.1275 0.756757 19.189 0 21.421 0C26.7065 0 31 4.27799 31 9.5444Z" fill="white"/>
<path d="M22.5057 21.2962C22.6142 21.2962 22.7847 21.3116 22.8932 21.358L22.7227 21.8831C22.5987 21.8367 22.4902 21.8213 22.3817 21.8213C22.0252 21.8213 21.8392 22.0529 21.8392 22.4699V23.8908H21.2812V21.358H21.8237V21.6668C21.9787 21.4352 22.1957 21.2962 22.5057 21.2962ZM20.4597 21.8522H19.5607V22.995C19.5607 23.2421 19.6537 23.412 19.9327 23.412C20.0722 23.412 20.2582 23.3657 20.4287 23.273L20.5837 23.7518C20.4132 23.8753 20.1342 23.9526 19.8862 23.9526C19.2352 23.9526 19.0027 23.5973 19.0027 23.0105V21.8522H18.4912V21.3425H19.0027V20.5703H19.5607V21.3425H20.4597V21.8522ZM13.3762 22.3927C13.4382 22.0221 13.6552 21.7749 14.0582 21.7749C14.4147 21.7749 14.6472 21.9912 14.7092 22.3927H13.3762ZM15.2827 22.6244C15.2827 21.8367 14.7867 21.2962 14.0737 21.2962C13.3607 21.2962 12.8027 21.8367 12.8027 22.6244C12.8027 23.412 13.3452 23.9526 14.1047 23.9526C14.4922 23.9526 14.8332 23.8599 15.1432 23.5973L14.8642 23.1958C14.6472 23.3657 14.3837 23.4583 14.1202 23.4583C13.7637 23.4583 13.4382 23.2885 13.3607 22.8406H15.2517C15.2672 22.7634 15.2827 22.7016 15.2827 22.6244ZM17.7162 22.0066C17.5612 21.9139 17.2512 21.7904 16.9257 21.7904C16.6002 21.7904 16.4452 21.8985 16.4452 22.0838C16.4452 22.2537 16.6312 22.3 16.8792 22.3309L17.1427 22.3618C17.7007 22.439 18.0262 22.6707 18.0262 23.1186C18.0262 23.5973 17.6077 23.9526 16.8637 23.9526C16.4452 23.9526 16.0577 23.8444 15.7632 23.6282L16.0267 23.1958C16.2127 23.3348 16.4917 23.4583 16.8792 23.4583C17.2667 23.4583 17.4527 23.3502 17.4527 23.1495C17.4527 23.0105 17.3132 22.9332 17.0032 22.8869L16.7397 22.856C16.1662 22.7788 15.8562 22.5163 15.8562 22.1147C15.8562 21.6051 16.2747 21.2962 16.9102 21.2962C17.3132 21.2962 17.6852 21.3888 17.9487 21.5587L17.7162 22.0066ZM24.5362 21.8058C24.4277 21.8058 24.3192 21.8213 24.2262 21.8676C24.1332 21.9139 24.0402 21.9603 23.9782 22.0375C23.9162 22.1147 23.8542 22.1919 23.8077 22.3C23.7612 22.3927 23.7457 22.5163 23.7457 22.6244C23.7457 22.7479 23.7612 22.856 23.8077 22.9487C23.8542 23.0414 23.9007 23.134 23.9782 23.2112C24.0557 23.2885 24.1332 23.3348 24.2262 23.3811C24.3192 23.4275 24.4277 23.4429 24.5362 23.4429C24.6447 23.4429 24.7532 23.4275 24.8462 23.3811C24.9392 23.3348 25.0322 23.2885 25.0942 23.2112C25.1717 23.134 25.2182 23.0568 25.2647 22.9487C25.3112 22.856 25.3267 22.7325 25.3267 22.6244C25.3267 22.5008 25.3112 22.3927 25.2647 22.3C25.2182 22.2074 25.1717 22.1147 25.0942 22.0375C25.0167 21.9603 24.9392 21.9139 24.8462 21.8676C24.7532 21.8367 24.6447 21.8058 24.5362 21.8058ZM24.5362 21.2962C24.7377 21.2962 24.9237 21.3271 25.0787 21.4043C25.2492 21.4661 25.3887 21.5587 25.5127 21.6823C25.6367 21.8058 25.7297 21.9448 25.8072 22.0993C25.8692 22.2692 25.9157 22.439 25.9157 22.6244C25.9157 22.8097 25.8847 22.995 25.8072 23.1495C25.7452 23.3193 25.6367 23.4583 25.5127 23.5665C25.3887 23.69 25.2492 23.7827 25.0787 23.8444C24.9082 23.9062 24.7222 23.9526 24.5362 23.9526C24.3347 23.9526 24.1487 23.9217 23.9937 23.8444C23.8232 23.7827 23.6837 23.69 23.5597 23.5665C23.4357 23.4429 23.3427 23.3039 23.2652 23.1495C23.2032 22.9796 23.1567 22.8097 23.1567 22.6244C23.1567 22.439 23.1877 22.2537 23.2652 22.0993C23.3272 21.9294 23.4357 21.7904 23.5597 21.6823C23.6837 21.5587 23.8232 21.4661 23.9937 21.4043C24.1487 21.3271 24.3347 21.2962 24.5362 21.2962ZM10.1522 22.6244C10.1522 22.1765 10.4467 21.8058 10.9272 21.8058C11.4077 21.8058 11.6867 22.161 11.6867 22.6244C11.6867 23.0877 11.3767 23.4275 10.9272 23.4275C10.4467 23.4275 10.1522 23.0722 10.1522 22.6244ZM12.2137 22.6244V21.358H11.6557V21.6668C11.4852 21.4352 11.2217 21.2962 10.8497 21.2962C10.1367 21.2962 9.57873 21.8522 9.57873 22.6244C9.57873 23.3966 10.1367 23.9526 10.8497 23.9526C11.2062 23.9526 11.4697 23.8136 11.6557 23.5819V23.8908H12.2137V22.6244ZM9.09823 23.8908V22.3C9.09823 21.6977 8.71073 21.2962 8.09073 21.2962C7.76523 21.2962 7.42423 21.3888 7.19173 21.7441C7.02123 21.4661 6.74223 21.2962 6.35473 21.2962C6.09123 21.2962 5.81223 21.3734 5.61073 21.6668V21.358H5.05273V23.8908H5.61073V22.4854C5.61073 22.0529 5.85873 21.8058 6.23073 21.8058C6.60273 21.8058 6.78873 22.0375 6.78873 22.4699V23.8753H7.34673V22.4699C7.34673 22.0375 7.61023 21.7904 7.96673 21.7904C8.32323 21.7904 8.52473 22.022 8.52473 22.4545V23.8599H9.09823V23.8908Z" fill="white"/>
<path d="M26.5041 23.6855V23.7473H26.5661C26.5816 23.7473 26.5971 23.7473 26.5971 23.7318C26.6126 23.7318 26.6126 23.7164 26.6126 23.701C26.6126 23.6855 26.6126 23.6855 26.5971 23.6855C26.5971 23.6855 26.5816 23.6701 26.5661 23.6701H26.5041V23.6855ZM26.5661 23.6546C26.5971 23.6546 26.6126 23.6546 26.6281 23.6701C26.6436 23.6855 26.6591 23.701 26.6591 23.7318C26.6591 23.7473 26.6591 23.7627 26.6436 23.7782C26.6281 23.7936 26.6126 23.7936 26.5816 23.7936L26.6591 23.8863H26.5971L26.5196 23.7936H26.5041V23.8863H26.4576V23.6546H26.5661ZM26.5506 23.9635C26.5816 23.9635 26.5971 23.9635 26.6281 23.9481C26.6591 23.9326 26.6746 23.9172 26.6901 23.9017C26.7056 23.8863 26.7211 23.8708 26.7366 23.8399C26.7521 23.8091 26.7521 23.7936 26.7521 23.7627C26.7521 23.7318 26.7521 23.7164 26.7366 23.6855C26.7211 23.6546 26.7056 23.6392 26.6901 23.6237C26.6746 23.6083 26.6591 23.5928 26.6281 23.5774C26.6126 23.562 26.5816 23.562 26.5506 23.562C26.5196 23.562 26.5041 23.562 26.4731 23.5774C26.4421 23.5928 26.4266 23.6083 26.4111 23.6237C26.3956 23.6392 26.3801 23.6701 26.3646 23.6855C26.3491 23.7164 26.3491 23.7318 26.3491 23.7627C26.3491 23.7936 26.3491 23.8091 26.3646 23.8399C26.3801 23.8708 26.3956 23.8863 26.4111 23.9017C26.4266 23.9172 26.4576 23.9326 26.4731 23.9481C26.5041 23.9635 26.5196 23.9635 26.5506 23.9635ZM26.5506 23.5156C26.5816 23.5156 26.6126 23.5156 26.6436 23.5311C26.6746 23.5465 26.7056 23.562 26.7211 23.5774C26.7366 23.5928 26.7676 23.6237 26.7831 23.6546C26.7986 23.6855 26.7986 23.7164 26.7986 23.7473C26.7986 23.7782 26.7986 23.8091 26.7831 23.8399C26.7676 23.8708 26.7521 23.9017 26.7211 23.9172C26.6901 23.9326 26.6746 23.9635 26.6436 23.9789C26.6126 23.9944 26.5816 23.9944 26.5506 23.9944C26.5196 23.9944 26.4731 23.9944 26.4421 23.9789C26.4111 23.9635 26.3801 23.9481 26.3646 23.9172C26.3491 23.9017 26.3181 23.8708 26.3026 23.8399C26.2871 23.8091 26.2871 23.7782 26.2871 23.7473C26.2871 23.7164 26.2871 23.6855 26.3026 23.6546C26.3181 23.6237 26.3336 23.5928 26.3646 23.5774C26.3801 23.562 26.4111 23.5311 26.4421 23.5311C26.4731 23.5156 26.5196 23.5156 26.5506 23.5156Z" fill="white"/>
</g>
<defs>
<clipPath id="clip0_6283_586">
<rect width="31" height="24" fill="white"/>
</clipPath>
</defs>
</svg>
