<svg width="97" height="24" viewBox="0 0 97 24" fill="none" xmlns="http://www.w3.org/2000/svg">
<g clip-path="url(#clip0_6283_595)">
<path d="M36.5183 5.21875H31.227C30.8634 5.21875 30.554 5.48177 30.4999 5.83761L28.3571 19.4061C28.3107 19.6768 28.5195 19.9166 28.7903 19.9166H31.3121C31.6757 19.9166 31.9851 19.6536 32.0393 19.2978L32.6195 15.6388C32.6736 15.2829 32.983 15.0199 33.3466 15.0199H35.0253C38.5141 15.0199 40.5176 13.3335 41.0437 9.9917C41.2835 8.52964 41.0514 7.37702 40.3707 6.58024C39.6203 5.69837 38.282 5.22649 36.5183 5.22649V5.21875ZM37.1294 10.1696C36.8432 12.0649 35.3888 12.0649 33.9887 12.0649H33.1919L33.7489 8.52191C33.7798 8.30531 33.9655 8.15059 34.1821 8.15059H34.5457C35.5049 8.15059 36.4022 8.15059 36.8664 8.69209C37.1449 9.01699 37.23 9.49661 37.1217 10.1696H37.1294Z" fill="white"/>
<path d="M52.3299 10.1071H49.7925C49.5759 10.1071 49.3903 10.2618 49.3593 10.4784L49.2433 11.1901L49.0654 10.9348C48.5161 10.138 47.2939 9.875 46.0717 9.875C43.2713 9.875 40.881 11.9946 40.4168 14.9728C40.177 16.4581 40.5174 17.8737 41.3606 18.8639C42.1342 19.7767 43.2404 20.1558 44.5477 20.1558C46.8065 20.1558 48.052 18.7015 48.052 18.7015L47.936 19.4054C47.8896 19.6762 48.0984 19.916 48.3692 19.916H50.6512C51.0148 19.916 51.3165 19.653 51.3784 19.2971L52.7476 10.6254C52.794 10.3546 52.5851 10.1148 52.3144 10.1148L52.3299 10.1071ZM48.8024 15.0425C48.5548 16.4891 47.4099 17.4638 45.9479 17.4638C45.213 17.4638 44.6251 17.2239 44.246 16.783C43.8747 16.3421 43.7277 15.7077 43.8515 15.0038C44.0758 13.5727 45.2517 12.567 46.6905 12.567C47.4099 12.567 47.9979 12.8068 48.3769 13.2555C48.7637 13.7119 48.9184 14.3463 48.8024 15.0502V15.0425Z" fill="white"/>
<path d="M65.829 10.1093H63.2839C63.0441 10.1093 62.8121 10.2331 62.6728 10.4342L59.1608 15.6094L57.6755 10.6353C57.5827 10.3259 57.2965 10.1093 56.9716 10.1093H54.4729C54.1712 10.1093 53.9546 10.4033 54.0552 10.6895L56.8555 18.9203L54.2177 22.6412C54.0088 22.9351 54.2177 23.3374 54.5735 23.3374H57.1186C57.3584 23.3374 57.5827 23.2214 57.7219 23.0202L66.1926 10.7978C66.3937 10.5038 66.1926 10.1016 65.829 10.1016V10.1093Z" fill="white"/>
<path d="M74.2536 5.21875H68.9624C68.5988 5.21875 68.2971 5.48177 68.2352 5.83761L66.0924 19.4061C66.046 19.6768 66.2549 19.9166 66.5256 19.9166H69.2409C69.4961 19.9166 69.7127 19.731 69.7514 19.4834L70.3625 15.6388C70.4167 15.2829 70.7261 15.0199 71.0897 15.0199H72.7606C76.2494 15.0199 78.2607 13.3335 78.779 9.9917C79.0188 8.52964 78.7868 7.37702 78.106 6.58024C77.3556 5.69837 76.0251 5.22649 74.2536 5.22649V5.21875ZM74.8647 10.1696C74.5785 12.0649 73.1242 12.0649 71.724 12.0649H70.9273L71.4842 8.52191C71.5152 8.30531 71.7008 8.15059 71.9174 8.15059H72.281C73.2325 8.15059 74.1376 8.15059 74.6017 8.69209C74.8802 9.01699 74.9653 9.49661 74.857 10.1696H74.8647Z" fill="white"/>
<path d="M90.0644 10.1071H87.5348C87.3182 10.1071 87.1325 10.2618 87.1016 10.4784L86.9933 11.1901L86.8154 10.9348C86.2661 10.138 85.0439 9.875 83.8217 9.875C81.0213 9.875 78.631 11.9946 78.1668 14.9728C77.927 16.4581 78.2674 17.8737 79.1106 18.8639C79.8842 19.7767 80.9904 20.1558 82.2977 20.1558C84.5565 20.1558 85.802 18.7015 85.802 18.7015L85.686 19.4054C85.6395 19.6762 85.8484 19.916 86.1192 19.916H88.4012C88.7648 19.916 89.0665 19.653 89.1284 19.2971L90.4976 10.6254C90.5363 10.3546 90.3351 10.1148 90.0567 10.1148L90.0644 10.1071ZM86.5369 15.0425C86.2971 16.4891 85.1445 17.4638 83.6824 17.4638C82.9475 17.4638 82.3596 17.2239 81.9806 16.783C81.6092 16.3421 81.4623 15.7077 81.586 15.0038C81.8181 13.5727 82.9862 12.567 84.425 12.567C85.1445 12.567 85.7324 12.8068 86.1114 13.2555C86.4982 13.7119 86.6529 14.3463 86.5369 15.0502V15.0425Z" fill="white"/>
<path d="M93.0513 5.59007L90.8776 19.4061C90.8312 19.6768 91.04 19.9166 91.3108 19.9166H93.4923C93.8558 19.9166 94.1653 19.6536 94.2194 19.2978L96.3622 5.72931C96.4086 5.45856 96.1998 5.21875 95.929 5.21875H93.4845C93.2679 5.21875 93.0823 5.3812 93.0513 5.59007Z" fill="white"/>
<path d="M6.39569 22.5497L6.79794 19.9814L5.9006 19.9582H1.5918L4.58552 0.997927C4.59326 0.943777 4.6242 0.889627 4.67062 0.850948C4.71703 0.81227 4.77118 0.789062 4.83307 0.789062H12.0892C14.495 0.789062 16.1582 1.29189 17.0323 2.28206C17.4423 2.7462 17.6976 3.23355 17.8214 3.76732C17.9529 4.32429 17.9529 4.9973 17.8214 5.80955V5.87144L17.8136 6.39747L18.2236 6.62954C18.564 6.80746 18.8425 7.01633 19.0513 7.25613C19.3994 7.65066 19.6238 8.15348 19.7166 8.75687C19.8172 9.37572 19.7785 10.1029 19.6238 10.9306C19.4381 11.8821 19.1364 12.7098 18.7342 13.3906C18.3629 14.0172 17.8832 14.5355 17.3185 14.9377C16.777 15.3168 16.1427 15.6107 15.4155 15.7964C14.7116 15.982 13.9148 16.0671 13.0407 16.0671H12.476C12.0737 16.0671 11.6792 16.2141 11.3698 16.4694C11.0603 16.7324 10.8592 17.096 10.7973 17.4982L10.7509 17.7303L10.0392 22.2557L10.0083 22.4259C10.0005 22.4801 9.98506 22.5033 9.96186 22.5187C9.94639 22.5342 9.91544 22.5419 9.8845 22.5419H6.39569V22.5497Z" fill="white"/>
<path d="M18.6025 5.9375C18.5793 6.07674 18.5561 6.21599 18.5252 6.36297C17.5659 11.2752 14.2937 12.977 10.1164 12.977H7.9891C7.47854 12.977 7.04534 13.3483 6.96798 13.8512L5.87724 20.7669L5.56781 22.724C5.51366 23.0567 5.76894 23.3506 6.10931 23.3506H9.88435C10.333 23.3506 10.7121 23.0257 10.7817 22.5848L10.8204 22.3914L11.5321 17.8815L11.5785 17.6339C11.6481 17.193 12.0271 16.8681 12.4758 16.8681H13.0405C16.6995 16.8681 19.5617 15.3828 20.3972 11.0818C20.7453 9.28707 20.5674 7.78634 19.6391 6.73428C19.3606 6.41712 19.0125 6.1541 18.6025 5.9375Z" fill="white"/>
<path d="M17.5966 5.53561C17.4496 5.49693 17.3026 5.45052 17.1479 5.41957C16.9932 5.38863 16.8308 5.35769 16.6683 5.32674C16.0959 5.23391 15.4615 5.1875 14.7885 5.1875H9.10276C8.96352 5.1875 8.83201 5.21844 8.70824 5.27259C8.44522 5.39636 8.25183 5.64391 8.20541 5.95334L6.99864 13.6194L6.95996 13.8438C7.03732 13.341 7.47052 12.9696 7.98108 12.9696H10.1084C14.2857 12.9696 17.5656 11.2755 18.5171 6.3556C18.5481 6.20862 18.5713 6.06937 18.5945 5.93013C18.3547 5.79862 18.0917 5.69032 17.8055 5.59749C17.7358 5.57429 17.6662 5.55108 17.5889 5.52787L17.5966 5.53561Z" fill="#EAE3DE"/>
<path d="M8.20499 5.95659C8.2514 5.6549 8.44479 5.40735 8.70781 5.27585C8.82384 5.2217 8.96309 5.19075 9.10233 5.19075H14.7881C15.4611 5.19075 16.0877 5.23717 16.6679 5.33C16.8303 5.3532 16.9928 5.38415 17.1475 5.42282C17.3022 5.4615 17.4569 5.49245 17.5962 5.53886C17.6658 5.56207 17.7431 5.58527 17.8128 5.60848C18.0912 5.70131 18.3543 5.80961 18.6018 5.94112C18.888 4.12322 18.6018 2.89324 17.6194 1.77156C16.5364 0.541578 14.587 0.0078125 12.0806 0.0078125H4.82447C4.31391 0.0078125 3.88071 0.379128 3.79562 0.88195L0.770949 20.0356C0.709063 20.4147 1.00302 20.755 1.38981 20.755H5.8688L6.99048 13.615L8.19725 5.94885L8.20499 5.95659Z" fill="white"/>
</g>
<defs>
<clipPath id="clip0_6283_595">
<rect width="95.6059" height="23.3464" fill="white" transform="translate(0.771484)"/>
</clipPath>
</defs>
</svg>
