<svg width="75" height="24" viewBox="0 0 75 24" fill="none" xmlns="http://www.w3.org/2000/svg">
<g clip-path="url(#clip0_6283_578)">
<path d="M48.8506 0C43.5248 0 38.7658 2.7264 38.7658 7.76248C38.7658 13.5386 47.2057 13.9375 47.2057 16.8396C47.2057 18.0615 45.7883 19.1552 43.3664 19.1552C39.9302 19.1552 37.3619 17.627 37.3619 17.627L36.2628 22.7098C36.2628 22.7098 39.2215 24.0007 43.1494 24.0007C48.9715 24.0007 53.5533 21.1409 53.5533 16.018C53.5533 9.91424 45.0781 9.52719 45.0781 6.83416C45.0781 5.87692 46.2417 4.82847 48.6562 4.82847C51.3806 4.82847 53.6029 5.93994 53.6029 5.93994L54.6787 1.03139C54.6787 1.03139 52.2605 0 48.8506 0ZM0.129129 0.370737L0 1.11147C0 1.11147 2.24024 1.51631 4.25826 2.32452C6.85661 3.25062 7.04129 3.79041 7.47898 5.46466L12.247 23.6181H18.6389L28.4857 0.370737H22.1089L15.7815 16.1767L13.1997 2.7783C12.9632 1.24493 11.7635 0.369995 10.2958 0.369995H0.12988L0.129129 0.370737ZM31.0496 0.370737L26.0473 23.6181H32.1284L37.1134 0.370737H31.0503H31.0496ZM64.9655 0.370737C63.4993 0.370737 62.7222 1.14632 62.1524 2.50099L53.2432 23.6181H59.6201L60.8536 20.0984H68.6224L69.3724 23.6181H74.9993L70.0916 0.370737H64.9662H64.9655ZM65.7951 6.65101L67.6854 15.3744H62.6216L65.7958 6.65101H65.7951Z" fill="white"/>
</g>
<defs>
<clipPath id="clip0_6283_578">
<rect width="75" height="24" fill="white"/>
</clipPath>
</defs>
</svg>
