<svg width="48" height="48" viewBox="0 0 48 48" fill="none" xmlns="http://www.w3.org/2000/svg">
<path d="M0 48L3.39082 35.675C1.29601 32.0594 0.19568 27.9579 0.20074 23.784C0.206262 10.6693 10.9267 0 24.1005 0C30.4934 0.00323372 36.4938 2.47994 41.0066 6.97577C45.5193 11.4716 48.0023 17.4475 48 23.8031C47.9941 36.9168 37.2721 47.588 24.1002 47.588H24.0898C20.0903 47.5864 16.1602 46.5875 12.6694 44.6926L0 48Z" fill="white"/>
<path fill-rule="evenodd" clip-rule="evenodd" d="M18.1261 13.8417C17.6785 12.8519 17.2075 12.8318 16.7823 12.8147L15.6376 12.8008C15.2394 12.8008 14.5923 12.9495 14.0453 13.5445C13.4983 14.1395 11.9551 15.5776 11.9551 18.5025C11.9551 21.4274 14.095 24.2536 14.3932 24.6507C14.6914 25.0478 18.5243 31.2414 24.5942 33.6243C29.6384 35.6046 30.6649 35.2108 31.7602 35.1118C32.8555 35.0129 35.2933 33.6738 35.7906 32.2855C36.2879 30.8973 36.2882 29.7079 36.1391 29.4593C35.99 29.2106 35.5918 29.0628 34.9941 28.7653C34.3964 28.4678 31.461 27.0298 30.9137 26.8312C30.3663 26.6327 29.9684 26.5341 29.5699 27.1291C29.1713 27.7241 28.0283 29.0625 27.6797 29.4593C27.3312 29.8561 26.9833 29.9058 26.3856 29.6087C25.788 29.3115 23.865 28.6835 21.5835 26.6582C19.8083 25.0824 18.61 23.1364 18.2612 22.5417C17.9123 21.947 18.2242 21.6249 18.5236 21.3287C18.7916 21.0623 19.1207 20.6345 19.4198 20.2875C19.719 19.9405 19.8174 19.6925 20.0162 19.2963C20.215 18.9002 20.1159 18.5523 19.9665 18.2551C19.8171 17.9579 18.6568 15.0175 18.1261 13.8417Z" fill="#4ACA59"/>
</svg>
