<svg width="30" height="30" viewBox="0 0 30 30" fill="none" xmlns="http://www.w3.org/2000/svg">
<path d="M1.66699 1.6665H3.40854C3.73657 1.6665 3.90058 1.6665 4.03257 1.72682C4.14888 1.77998 4.24745 1.86547 4.31653 1.9731C4.39491 2.09523 4.4181 2.2576 4.46449 2.58232L5.09556 6.99984M5.09556 6.99984L6.49809 17.3084C6.67607 18.6165 6.76506 19.2706 7.07779 19.763C7.35336 20.1968 7.74844 20.5418 8.21547 20.7563C8.74548 20.9998 9.40558 20.9998 10.7258 20.9998H22.1363C23.393 20.9998 24.0214 20.9998 24.5349 20.7737C24.9877 20.5744 25.3761 20.253 25.6567 19.8455C25.9749 19.3833 26.0925 18.7661 26.3276 17.5315L28.0925 8.26609C28.1752 7.83158 28.2166 7.61432 28.1566 7.4445C28.104 7.29553 28.0002 7.17008 27.8637 7.09053C27.7081 6.99984 27.487 6.99984 27.0446 6.99984H5.09556ZM12.3337 26.9998C12.3337 27.7362 11.7367 28.3332 11.0003 28.3332C10.2639 28.3332 9.66699 27.7362 9.66699 26.9998C9.66699 26.2635 10.2639 25.6665 11.0003 25.6665C11.7367 25.6665 12.3337 26.2635 12.3337 26.9998ZM23.0003 26.9998C23.0003 27.7362 22.4034 28.3332 21.667 28.3332C20.9306 28.3332 20.3337 27.7362 20.3337 26.9998C20.3337 26.2635 20.9306 25.6665 21.667 25.6665C22.4034 25.6665 23.0003 26.2635 23.0003 26.9998Z" stroke="white" stroke-width="2" stroke-linecap="round" stroke-linejoin="round"/>
</svg>
