<svg width="17" height="22" viewBox="0 0 17 22" fill="none" xmlns="http://www.w3.org/2000/svg">
<path d="M1 3.99147C1 3.0203 1 2.53472 1.20249 2.26705C1.37889 2.03386 1.64852 1.88956 1.9404 1.87213C2.27544 1.85213 2.67946 2.12148 3.48752 2.66018L14.0031 9.67056C14.6708 10.1157 15.0046 10.3382 15.1209 10.6188C15.2227 10.864 15.2227 11.1397 15.1209 11.3849C15.0046 11.6654 14.6708 11.888 14.0031 12.3331L3.48752 19.3435C2.67946 19.8822 2.27544 20.1515 1.9404 20.1315C1.64852 20.1141 1.37889 19.9698 1.20249 19.7366C1 19.469 1 18.9834 1 18.0122V3.99147Z" stroke="white" stroke-width="2" stroke-linecap="round" stroke-linejoin="round"/>
</svg>
