<svg width="180" height="63" viewBox="0 0 180 63" fill="none" xmlns="http://www.w3.org/2000/svg">
<path d="M93.5479 0.346518C95.9889 -0.636478 98.755 0.543454 99.7393 2.98128C100.723 5.41905 99.5425 8.18094 97.1016 9.1639C96.2406 9.51056 95.3395 9.58702 94.4902 9.43538C91.7234 10.472 88.3801 14.5995 88.1602 17.7616C91.265 20.4079 93.2334 24.3452 93.2334 28.743C93.2333 35.6486 88.3803 41.4167 81.8936 42.8368C79.4629 45.0337 79.2972 51.2489 80.9707 54.035C81.0563 54.0794 81.1418 54.1255 81.2256 54.1756C83.4795 55.5224 84.2078 58.4422 82.8594 60.6932C81.5109 62.9442 78.5871 63.6717 76.333 62.325C74.079 60.9783 73.3507 58.0585 74.6992 55.8075C75.1702 55.0213 75.8333 54.4211 76.5928 54.0301C78.3134 51.3156 78.3676 45.2623 76.1152 42.9266C69.4083 41.677 64.3341 35.8044 64.334 28.743C64.334 20.771 70.8007 14.3125 78.7832 14.3123C80.4783 14.3123 82.1052 14.6044 83.6162 15.1395C86.8578 14.7725 90.6751 9.98687 91.0244 6.78792C90.9844 6.70332 90.9457 6.61705 90.9102 6.52914C89.9262 4.09154 91.1072 1.32962 93.5479 0.346518ZM139.279 51.7186C141.031 51.7186 142.607 52.6031 143.434 53.9891L141.79 54.9432C141.308 54.0782 140.382 53.5662 139.279 53.5662C138.344 53.5663 137.587 53.8515 137.006 54.451C136.445 55.0408 136.149 55.7984 136.149 56.742C136.149 57.6855 136.435 58.4228 137.006 59.0125C137.587 59.6022 138.344 59.8972 139.279 59.8973C140.382 59.8973 141.337 59.3764 141.79 58.5311L143.434 59.4842C142.607 60.8801 141.051 61.7547 139.279 61.7547C137.833 61.7546 136.631 61.2736 135.677 60.3104V60.3006C134.722 59.3374 134.26 58.1476 134.26 56.7323C134.26 55.3169 134.732 54.1173 135.677 53.1639C136.631 52.2007 137.833 51.7187 139.279 51.7186ZM173.867 51.7186C175.619 51.7186 177.195 52.6031 178.021 53.9891L176.378 54.9432C175.896 54.0782 174.97 53.5662 173.867 53.5662C172.932 53.5663 172.174 53.8515 171.594 54.451C171.033 55.0408 170.737 55.7984 170.737 56.742C170.737 57.6855 171.023 58.4228 171.594 59.0125C172.174 59.6022 172.932 59.8972 173.867 59.8973C174.97 59.8973 175.925 59.3764 176.378 58.5311L178.021 59.4842C177.195 60.8801 175.639 61.7547 173.867 61.7547C172.42 61.7546 171.219 61.2736 170.265 60.3104V60.3006C169.31 59.3374 168.848 58.1476 168.848 56.7323C168.848 55.3169 169.32 54.1173 170.265 53.1639C171.219 52.2007 172.42 51.7187 173.867 51.7186ZM153.699 61.5575H151.8V51.9139H153.699V61.5575ZM161.348 57.7918V51.9139H163.247V61.5575H161.801L157.666 55.659V61.5575H155.767V51.9139H157.214L161.348 57.7918ZM167.214 61.5575H165.314V51.9139H167.214V61.5575ZM146.77 59.7303H150.451V61.5496H144.87V51.9061H146.77V59.7303ZM15.3457 13.3436C20.7002 13.3437 25.5036 16.0375 28.0332 20.2938L23.0127 23.203C21.5363 20.5491 18.7118 18.9961 15.3359 18.9959C12.4716 18.9959 10.1477 19.8806 8.37598 21.6893C6.64377 23.498 5.75781 25.8182 5.75781 28.6785C5.75786 31.5387 6.6439 33.8192 8.37598 35.6278C10.1477 37.4365 12.4618 38.3211 15.3359 38.3211C18.7119 38.321 21.615 36.7187 23.0127 34.1532L28.0332 37.0633C25.5036 41.3196 20.7395 44.0134 15.3457 44.0135C10.9164 44.0135 7.25435 42.5386 4.34082 39.5897V39.5702C1.42734 36.6212 6.31533e-05 33.0037 0 28.6688C0 24.3338 1.43722 20.6672 4.34082 17.7674C7.25436 14.8184 10.9163 13.3436 15.3457 13.3436ZM165.796 13.9373C169.841 13.9373 173.218 15.373 175.915 18.1942C178.651 21.0153 180 24.5049 180 28.6727C180 32.8405 178.651 36.3398 175.915 39.161C173.218 41.9822 169.841 43.4178 165.796 43.4178H154.073V13.9373H165.796ZM37.4336 43.408H31.6162V13.9373H37.4336V43.408ZM62.4346 19.491H54.4619V43.408H48.6445V19.491H40.7207V13.9373H62.4346V19.491ZM111.826 27.8758L120.262 13.9373H126.257V43.408H120.479V24.2879L112.171 37.9715H111.492L103.185 24.328V43.3973H97.3672V13.9373H103.352L111.826 27.8758ZM149.762 19.491H137.537V25.7625H148.709V31.2381H137.537V37.8436H149.979V43.3973H131.72V13.9373H149.762V19.491ZM159.891 37.8436H165.796C168.365 37.8436 170.433 36.9981 172.037 35.3172C173.641 33.5873 174.438 31.4052 174.438 28.6629C174.438 25.9204 173.642 23.7374 172.037 22.0565C170.433 20.3265 168.365 19.491 165.796 19.491H159.891V37.8436Z" fill="white"/>
</svg>
